# xmcd
#
# Track frame offsets:
# 150
# 14897
# 31194
# 46872
# 63282
# 78792
# 94485
# 109987
# 125992
# 139735
# 157960
# 172360
# 189212
# 205412
# 219317
# 232262
#
# Disc length: 3226 seconds
#
#
# Revision: 0
# Processed by: cddbd v1.5.2PL0 Copyright (c) Steve Scherf et al.
# Submitted via: FreeRIP 2.51 
#
DISCID=ea0c9810
DTITLE=Diverse - Die Stars aus Volksmusik und Schlager
DYEAR=1998
DGENRE=National Folk
TTITLE0=Klostertaler - Bäng Boom Bäng
TTITLE1=Petra Frey - Herz in Sicht
TTITLE2=Brunner and Brunner - Wenn Du einsam bist
TTITLE3=Kastelruther Spatzen - Feuer im ewigen Eis
TTITLE4=Judith and Mel - Komm kuscheln
TTITLE5=Nockalm Quintett - Das Wunder von Piräus
TTITLE6=Angela Wiedl - Schenk mir Blumen jeden Tag
TTITLE7=Frans Bauer - Wenn ein Stern am Himmel steht
TTITLE8=Bergfeuer - Das Feuer der Berge
TTITLE9=Zellberg Buam - Tirolerzeit Medley
TTITLE10=Margitta and Töchter - Alle Mädchen haben Träume
TTITLE11=Die Paldauer - Am aller aller liebsten
TTITLE12=Lydia Huber - In der Heimat des Herzens
TTITLE13=Oliver Haidt - Ich denk an Rhodos
TTITLE14=Eva Maria - Sonnenschein im Herzen
TTITLE15=Hansi Hinterseer - Kuhtutten Jodler
EXTD=
EXTT0=
EXTT1=
EXTT2=
EXTT3=
EXTT4=
EXTT5=
EXTT6=
EXTT7=
EXTT8=
EXTT9=
EXTT10=
EXTT11=
EXTT12=
EXTT13=
EXTT14=
EXTT15=
PLAYORDER=
